<?xml version="1.0" encoding="utf-8"?>
<!-- Generator: Adobe Illustrator 22.1.0, SVG Export Plug-In . SVG Version: 6.00 Build 0)  -->
<svg version="1.1" id="Warstwa_1" xmlns="http://www.w3.org/2000/svg" xmlns:xlink="http://www.w3.org/1999/xlink" x="0px" y="0px"
	 viewBox="0 0 296 89.9" style="enable-background:new 0 0 296 89.9;" xml:space="preserve">
<style type="text/css">
	.st0{fill:#3D3D3D;}
	.st1{fill:#43C1FF;}
</style>
<g>
	<path class="st0" d="M45,89.9c-24.8,0-45-18.7-45-43.4C0,21.6,20.2,0,45,0s45,20.2,45,45C89.9,69.7,69.7,89.9,45,89.9 M45,4.5
		C22.6,4.5,4.5,22.7,4.5,45S22.6,85.4,45,85.4c22.3,0,40.5-18.2,40.5-40.5C85.4,22.7,67.3,4.5,45,4.5"/>
	<path class="st1" d="M36,59.8c-5.6,0-8-5.6-9.9-9.9c-1.7-3.9-3-6.5-4.8-6.5c-1.8,0-2.7,0.8-3.8,1.7s-2.6,2.1-4.7,2.1
		c-1.1,0-2-0.9-2-2c0-1.1,0.9-2,2-2c0.6,0,1.2-0.5,2.1-1.2c1.4-1.1,3.2-2.7,6.3-2.7c4.7,0,6.8,4.7,8.6,8.9c2,4.5,3.5,7.5,6.3,7.5
		c3.2,0,4.8-6.2,6.5-11.7c2-6.9,3.9-14,9.6-14c5.3,0,7.5,5.3,9.6,9.8c2,4.4,3.3,7.2,5.7,7.2c0.9,0,1.8-0.6,3-1.5
		c1.7-1.2,3.8-2.7,7.1-2.7c1.1,0,2,0.9,2,2c0,1.1-0.9,2-2,2c-2,0-3.2,0.9-4.7,2c-1.5,1.1-3,2.3-5.4,2.3c-5.3,0-7.4-5.1-9.5-9.6
		c-2-4.5-3.5-7.4-5.9-7.4c-2.7,0-4.4,5.9-5.7,11C44.3,52.4,42.2,59.8,36,59.8"/>
</g>
<g>
	<path class="st0" d="M121.5,28.1c-1.1,0-2,0.2-2.9,0.6c-0.8,0.4-1.5,1-2.1,1.8c-0.6,0.8-1,1.7-1.3,2.9c-0.3,1.1-0.4,2.3-0.4,3.8
		c0,1.4,0.1,2.7,0.4,3.8c0.3,1.1,0.6,2,1.2,2.8c0.5,0.7,1.2,1.3,2,1.7c0.8,0.4,1.8,0.6,3.1,0.6c1.1,0,2.1-0.1,3.3-0.4
		c1.1-0.2,2.2-0.6,3.6-1v4.7c-0.6,0.2-1.1,0.4-1.7,0.6c-0.6,0.2-1.1,0.3-1.7,0.4c-0.6,0.1-1.2,0.2-1.8,0.2c-0.6,0.1-1.3,0.1-2,0.1
		c-2,0-3.9-0.3-5.3-1c-1.5-0.6-2.8-1.6-3.8-2.8c-1-1.2-1.7-2.7-2.1-4.3C109.2,41,109,39,109,37s0.3-3.9,0.8-5.5
		c0.5-1.7,1.3-3.2,2.5-4.4c1-1.2,2.3-2.1,3.9-2.9c1.5-0.7,3.4-1,5.4-1c1.3,0,2.7,0.2,4,0.5c1.3,0.3,2.7,0.8,3.8,1.4l-1.8,4.6
		c-1-0.5-2-0.9-3-1.2C123.4,28.3,122.4,28.1,121.5,28.1"/>
	<path class="st0" d="M151.1,40.2c0,1.7-0.2,3.2-0.6,4.5c-0.4,1.3-1,2.5-1.8,3.4c-0.8,0.9-1.8,1.6-3,2c-1.1,0.5-2.5,0.7-3.9,0.7
		c-1.3,0-2.6-0.2-3.7-0.7c-1.1-0.5-2.1-1.1-3-2c-0.8-0.9-1.4-2-1.9-3.4c-0.5-1.3-0.7-2.9-0.7-4.5c0-1.7,0.2-3.2,0.6-4.5
		c0.4-1.3,1-2.5,1.8-3.3c0.8-0.9,1.8-1.5,3-2c1.1-0.5,2.5-0.7,3.9-0.7c1.3,0,2.6,0.2,3.7,0.7c1.1,0.5,2.1,1.1,3,2
		c0.8,0.9,1.4,2,1.9,3.3C150.9,37,151.1,38.5,151.1,40.2 M138.1,40.2c0,2,0.3,3.6,0.8,4.6c0.6,1,1.5,1.5,2.8,1.5
		c1.3,0,2.2-0.5,2.8-1.5c0.6-1,0.8-2.6,0.8-4.6c0-2-0.3-3.6-0.8-4.6c-0.6-1-1.5-1.5-2.9-1.5c-1.3,0-2.2,0.5-2.8,1.5
		C138.4,36.7,138.1,38.2,138.1,40.2"/>
	<path class="st0" d="M161.9,50.8c-1,0-2-0.2-2.9-0.7c-0.8-0.4-1.6-1.1-2.2-2c-0.6-0.9-1.1-1.9-1.4-3.3s-0.5-2.9-0.5-4.6
		s0.2-3.3,0.5-4.6s0.8-2.5,1.4-3.4c0.6-0.9,1.4-1.5,2.2-2c0.9-0.4,1.8-0.7,3-0.7c0.6,0,1.2,0.1,1.8,0.2c0.5,0.1,1,0.4,1.4,0.6
		c0.4,0.2,0.8,0.6,1.2,0.9c0.3,0.4,0.6,0.7,0.9,1.2h0.2c-0.1-0.5-0.1-0.9-0.2-1.4c-0.1-0.4-0.1-0.8-0.2-1.3c0-0.5-0.1-0.9-0.1-1.3
		v-6.5h5.6v28.4h-4.3l-1.1-2.7h-0.2c-0.3,0.4-0.5,0.8-0.9,1.2c-0.3,0.4-0.7,0.7-1.1,0.9c-0.4,0.3-0.9,0.5-1.4,0.6
		C163.3,50.8,162.6,50.8,161.9,50.8 M164,46.4c0.6,0,1.2-0.1,1.6-0.3c0.5-0.2,0.8-0.6,1.1-1s0.5-1,0.6-1.7s0.2-1.4,0.2-2.3v-0.6
		c0-1-0.1-1.8-0.2-2.7c-0.1-0.8-0.3-1.4-0.6-1.9s-0.6-0.9-1.1-1.2c-0.5-0.3-1-0.4-1.8-0.4c-1.1,0-2,0.5-2.6,1.5
		c-0.5,1-0.8,2.6-0.8,4.6c0,2,0.3,3.5,0.8,4.5C161.9,45.9,162.7,46.4,164,46.4"/>
	<path class="st0" d="M187.7,50.8c-1.4,0-2.8-0.2-4.1-0.6c-1.2-0.4-2.2-1-3.2-1.9c-0.9-0.8-1.5-1.9-2-3.3c-0.5-1.3-0.7-2.9-0.7-4.6
		c0-1.8,0.2-3.4,0.7-4.7c0.4-1.3,1.1-2.5,1.9-3.4c0.8-0.9,1.7-1.5,3-2c1.1-0.4,2.5-0.7,3.8-0.7s2.6,0.2,3.7,0.6c1.1,0.4,2,1,2.8,1.8
		s1.3,1.7,1.7,3c0.4,1.1,0.6,2.5,0.6,4v2.7h-12.5c0,0.8,0.1,1.5,0.4,2.1c0.2,0.6,0.5,1.1,0.9,1.6c0.4,0.4,0.9,0.7,1.4,1
		c0.6,0.2,1.2,0.3,1.9,0.3c0.6,0,1.2,0,1.7-0.1c0.5-0.1,1.1-0.2,1.6-0.3c0.5-0.1,1-0.3,1.5-0.5c0.5-0.2,1-0.4,1.5-0.7v4.3
		c-0.5,0.2-1,0.5-1.4,0.6c-0.5,0.2-1,0.3-1.5,0.4c-0.5,0.1-1.1,0.2-1.7,0.3C189.1,50.8,188.4,50.8,187.7,50.8 M187,33.6
		c-1,0-1.8,0.3-2.5,1s-1,1.7-1.1,3.3h7.2c0-0.6-0.1-1.2-0.2-1.7c-0.1-0.5-0.4-1-0.6-1.3c-0.2-0.3-0.6-0.7-1.1-0.9
		C188,33.7,187.5,33.6,187,33.6"/>
	<path class="st0" d="M227.2,50.5h-6.4l-3.3-13.2c0-0.2-0.1-0.4-0.2-0.8c-0.1-0.3-0.1-0.7-0.2-1.1c-0.1-0.4-0.2-0.8-0.2-1.3
		c-0.1-0.4-0.2-0.9-0.2-1.3c-0.1-0.4-0.1-0.8-0.2-1.2c-0.1-0.4-0.1-0.6-0.1-0.9c0,0.2-0.1,0.5-0.1,0.9c-0.1,0.4-0.1,0.7-0.2,1.1
		c-0.1,0.4-0.1,0.8-0.2,1.3c-0.1,0.4-0.2,0.9-0.2,1.3c-0.1,0.4-0.2,0.8-0.2,1.1c-0.1,0.3-0.1,0.6-0.2,0.8L212,50.3h-6.5L199,23.7
		h5.6l3.1,14.6c0,0.2,0.1,0.5,0.2,0.8c0.1,0.4,0.1,0.8,0.2,1.2c0.1,0.5,0.2,0.9,0.3,1.4s0.2,1,0.3,1.5c0.1,0.5,0.2,0.9,0.2,1.3
		c0.1,0.4,0.1,0.7,0.2,1c0-0.3,0.1-0.6,0.2-1c0.1-0.4,0.1-0.8,0.2-1.3c0.1-0.5,0.2-0.9,0.2-1.4c0.1-0.5,0.2-0.9,0.2-1.4
		c0.1-0.4,0.1-0.8,0.2-1.1c0.1-0.3,0.1-0.6,0.2-0.7l3.7-14.9h5l3.7,14.9c0,0.1,0.1,0.4,0.2,0.7c0.1,0.3,0.1,0.7,0.2,1.1
		c0.1,0.4,0.2,0.9,0.2,1.4c0.1,0.5,0.2,1,0.2,1.4c0.1,0.5,0.1,0.9,0.2,1.3c0.1,0.4,0.1,0.7,0.2,1c0-0.3,0.1-0.6,0.2-1
		c0.1-0.4,0.1-0.9,0.2-1.3c0.1-0.5,0.2-1,0.3-1.5s0.2-1,0.3-1.4c0.1-0.5,0.2-0.9,0.2-1.2c0.1-0.4,0.1-0.6,0.2-0.8l3.1-14.6h5.6
		L227.2,50.5z"/>
	<path class="st0" d="M247.6,50.5l-1.1-2.8h-0.2c-0.4,0.5-0.8,1-1.2,1.4c-0.4,0.4-0.8,0.7-1.3,1c-0.5,0.2-1,0.4-1.6,0.6
		c-0.6,0.1-1.2,0.2-2,0.2s-1.6-0.1-2.3-0.4c-0.7-0.3-1.3-0.6-1.8-1.2c-0.5-0.5-0.9-1.2-1.2-2c-0.3-0.8-0.4-1.7-0.4-2.9
		c0-2.1,0.7-3.8,2-4.8c1.4-1,3.5-1.6,6.2-1.7l3.3-0.1v-1.5c0-0.8-0.2-1.4-0.7-1.8c-0.5-0.4-1.1-0.6-2-0.6c-0.9,0-1.7,0.1-2.6,0.4
		c-0.8,0.2-1.6,0.6-2.6,1l-1.8-3.7c1-0.6,2.1-1,3.4-1.3c1.2-0.3,2.6-0.5,3.9-0.5c2.6,0,4.5,0.6,5.8,1.8c1.3,1.2,2,3,2,5.4v13.6
		L247.6,50.5L247.6,50.5z M246,41l-1.8,0.1c-0.7,0-1.3,0.1-1.8,0.3c-0.5,0.2-0.9,0.4-1.2,0.7c-0.3,0.3-0.5,0.6-0.7,1
		c-0.1,0.4-0.2,0.8-0.2,1.3c0,0.8,0.2,1.4,0.6,1.8c0.4,0.4,0.9,0.5,1.6,0.5c0.5,0,1-0.1,1.4-0.3c0.4-0.2,0.8-0.4,1.1-0.8
		c0.3-0.3,0.6-0.8,0.7-1.3c0.2-0.5,0.3-1.1,0.3-1.7L246,41L246,41z"/>
	<path class="st0" d="M261.6,50.5L254.4,30h5.8l3.4,11.6c0.2,0.7,0.4,1.4,0.5,2.1c0.1,0.7,0.2,1.4,0.3,2h0.1c0-0.6,0.1-1.3,0.3-2
		c0.1-0.7,0.3-1.4,0.5-2.1l3.4-11.6h5.8l-7.3,20.4H261.6z"/>
	<path class="st0" d="M286.4,50.8c-1.4,0-2.8-0.2-4.1-0.6c-1.2-0.4-2.2-1-3.2-1.9c-0.9-0.8-1.5-1.9-2-3.3c-0.5-1.3-0.7-2.9-0.7-4.6
		c0-1.8,0.2-3.4,0.7-4.7c0.4-1.3,1.1-2.5,1.9-3.4s1.7-1.5,3-2c1.1-0.4,2.5-0.7,3.8-0.7c1.3,0,2.6,0.2,3.7,0.6c1.1,0.4,2,1,2.8,1.8
		c0.7,0.8,1.3,1.7,1.7,3c0.4,1.1,0.6,2.5,0.6,4v2.7h-12.6c0,0.8,0.1,1.5,0.4,2.1c0.2,0.6,0.5,1.1,0.9,1.6c0.4,0.4,0.9,0.7,1.4,1
		c0.6,0.2,1.2,0.3,1.9,0.3c0.6,0,1.2,0,1.7-0.1c0.5-0.1,1.1-0.2,1.6-0.3c0.5-0.1,1-0.3,1.5-0.5c0.5-0.2,1-0.4,1.5-0.7v4.3
		c-0.5,0.3-1,0.5-1.4,0.6c-0.5,0.2-1,0.3-1.5,0.4c-0.5,0.1-1.1,0.2-1.7,0.3C287.9,50.8,287.2,50.8,286.4,50.8 M285.7,33.6
		c-1,0-1.8,0.3-2.5,1s-1,1.7-1.1,3.3h7.2c0-0.6-0.1-1.2-0.2-1.7s-0.4-1-0.6-1.3c-0.3-0.4-0.6-0.7-1.1-0.9
		C286.9,33.7,286.3,33.6,285.7,33.6"/>
</g>
<g>
	<path d="M159.4,69.2c-0.5-0.2-0.8-0.4-1.1-0.7l0.3-0.6c0.3,0.3,0.6,0.5,1,0.6c0.4,0.2,0.8,0.2,1.3,0.2c0.6,0,1.1-0.1,1.4-0.3
		c0.3-0.2,0.5-0.5,0.5-0.9c0-0.3-0.1-0.5-0.3-0.7s-0.4-0.3-0.6-0.4c-0.2-0.1-0.6-0.2-1-0.3c-0.5-0.1-0.9-0.3-1.3-0.4
		c-0.3-0.1-0.6-0.3-0.8-0.6c-0.2-0.3-0.3-0.6-0.3-1c0-0.4,0.1-0.7,0.3-1c0.2-0.3,0.5-0.5,0.9-0.7c0.4-0.2,0.9-0.3,1.4-0.3
		c0.4,0,0.8,0.1,1.2,0.2s0.7,0.3,1,0.5l-0.2,0.6c-0.3-0.2-0.6-0.3-0.9-0.4c-0.3-0.1-0.7-0.1-1-0.1c-0.6,0-1.1,0.1-1.4,0.4
		c-0.3,0.2-0.5,0.5-0.5,0.9c0,0.3,0.1,0.5,0.3,0.7s0.4,0.3,0.6,0.4c0.3,0.1,0.6,0.2,1,0.3c0.5,0.1,0.9,0.2,1.2,0.4
		c0.3,0.1,0.6,0.3,0.8,0.6c0.2,0.2,0.3,0.6,0.3,1c0,0.4-0.1,0.7-0.3,1c-0.2,0.3-0.5,0.5-0.9,0.7c-0.4,0.2-0.9,0.3-1.4,0.3
		C160.4,69.4,159.9,69.3,159.4,69.2z"/>
	<path d="M169.1,68.9c-0.6-0.3-1-0.7-1.3-1.3c-0.3-0.5-0.5-1.1-0.5-1.8c0-0.7,0.2-1.3,0.5-1.8s0.8-1,1.3-1.3
		c0.6-0.3,1.2-0.5,1.9-0.5s1.3,0.2,1.9,0.5c0.6,0.3,1,0.7,1.3,1.3s0.5,1.1,0.5,1.8c0,0.7-0.2,1.3-0.5,1.8c-0.3,0.5-0.8,1-1.3,1.3
		s-1.2,0.5-1.9,0.5S169.7,69.2,169.1,68.9z M172.5,68.4c0.4-0.2,0.8-0.6,1-1c0.3-0.4,0.4-0.9,0.4-1.5c0-0.5-0.1-1-0.4-1.5
		c-0.3-0.4-0.6-0.8-1-1c-0.4-0.2-0.9-0.4-1.5-0.4c-0.6,0-1,0.1-1.5,0.4c-0.4,0.2-0.8,0.6-1.1,1c-0.3,0.4-0.4,0.9-0.4,1.5
		c0,0.5,0.1,1,0.4,1.5c0.3,0.4,0.6,0.8,1.1,1c0.4,0.2,0.9,0.4,1.5,0.4C171.6,68.7,172.1,68.6,172.5,68.4z"/>
	<path d="M179.9,63v2.7h3.6v0.6h-3.6v3h-0.7v-7h4.8V63H179.9z"/>
	<path d="M189.8,63h-2.4v-0.6h5.6V63h-2.4v6.3h-0.7V63z"/>
	<path d="M206.5,62.4l-2.3,7h-0.8l-2-5.9l-2,5.9h-0.8l-2.3-7h0.8l2,6l2.1-6h0.7l2,6l2-6H206.5z"/>
	<path d="M214.9,67.5H211l-0.8,1.9h-0.8l3.2-7h0.7l3.2,7h-0.8L214.9,67.5z M214.6,66.9l-1.7-3.7l-1.7,3.7H214.6z"/>
	<path d="M225.3,69.3l-1.6-2.2c-0.2,0-0.4,0-0.6,0h-1.9v2.2h-0.7v-7h2.6c0.9,0,1.6,0.2,2.1,0.6s0.8,1,0.8,1.8c0,0.5-0.1,1-0.4,1.4
		c-0.3,0.4-0.7,0.6-1.2,0.8l1.7,2.4H225.3z M224.7,66.1c0.4-0.3,0.5-0.7,0.5-1.3c0-0.6-0.2-1-0.5-1.3s-0.9-0.5-1.6-0.5h-1.8v3.5h1.8
		C223.8,66.5,224.3,66.4,224.7,66.1z"/>
	<path d="M235.5,68.7v0.6h-4.9v-7h4.8V63h-4v2.5h3.6v0.6h-3.6v2.6H235.5z"/>
	<path d="M251.5,62.4v7h-0.7v-3.2h-4.4v3.2h-0.7v-7h0.7v3.1h4.4v-3.1H251.5z"/>
	<path d="M257.8,68.9c-0.6-0.3-1-0.7-1.3-1.3c-0.3-0.5-0.5-1.1-0.5-1.8c0-0.7,0.2-1.3,0.5-1.8s0.8-1,1.3-1.3
		c0.6-0.3,1.2-0.5,1.9-0.5s1.3,0.2,1.9,0.5c0.6,0.3,1,0.7,1.3,1.3s0.5,1.1,0.5,1.8c0,0.7-0.2,1.3-0.5,1.8c-0.3,0.5-0.8,1-1.3,1.3
		s-1.2,0.5-1.9,0.5S258.3,69.2,257.8,68.9z M261.1,68.4c0.4-0.2,0.8-0.6,1-1c0.3-0.4,0.4-0.9,0.4-1.5c0-0.5-0.1-1-0.4-1.5
		c-0.3-0.4-0.6-0.8-1-1c-0.4-0.2-0.9-0.4-1.5-0.4c-0.6,0-1,0.1-1.5,0.4c-0.4,0.2-0.8,0.6-1.1,1c-0.3,0.4-0.4,0.9-0.4,1.5
		c0,0.5,0.1,1,0.4,1.5c0.3,0.4,0.6,0.8,1.1,1c0.4,0.2,0.9,0.4,1.5,0.4C260.2,68.7,260.7,68.6,261.1,68.4z"/>
	<path d="M268.5,68.6c-0.5-0.5-0.8-1.3-0.8-2.3v-4h0.7v4c0,0.8,0.2,1.4,0.5,1.8s0.9,0.6,1.6,0.6c0.7,0,1.2-0.2,1.6-0.6
		c0.4-0.4,0.5-1,0.5-1.8v-4h0.7v4c0,1-0.3,1.7-0.8,2.3c-0.5,0.5-1.2,0.8-2.1,0.8S269,69.1,268.5,68.6z"/>
	<path d="M279,69.2c-0.5-0.2-0.8-0.4-1.1-0.7l0.3-0.6c0.3,0.3,0.6,0.5,1,0.6c0.4,0.2,0.8,0.2,1.3,0.2c0.6,0,1.1-0.1,1.4-0.3
		c0.3-0.2,0.5-0.5,0.5-0.9c0-0.3-0.1-0.5-0.3-0.7s-0.4-0.3-0.6-0.4c-0.2-0.1-0.6-0.2-1-0.3c-0.5-0.1-0.9-0.3-1.3-0.4
		c-0.3-0.1-0.6-0.3-0.8-0.6c-0.2-0.3-0.3-0.6-0.3-1c0-0.4,0.1-0.7,0.3-1c0.2-0.3,0.5-0.5,0.9-0.7c0.4-0.2,0.9-0.3,1.4-0.3
		c0.4,0,0.8,0.1,1.2,0.2s0.7,0.3,1,0.5l-0.2,0.6c-0.3-0.2-0.6-0.3-0.9-0.4c-0.3-0.1-0.7-0.1-1-0.1c-0.6,0-1.1,0.1-1.4,0.4
		c-0.3,0.2-0.5,0.5-0.5,0.9c0,0.3,0.1,0.5,0.3,0.7s0.4,0.3,0.6,0.4c0.3,0.1,0.6,0.2,1,0.3c0.5,0.1,0.9,0.2,1.2,0.4
		c0.3,0.1,0.6,0.3,0.8,0.6c0.2,0.2,0.3,0.6,0.3,1c0,0.4-0.1,0.7-0.3,1c-0.2,0.3-0.5,0.5-0.9,0.7c-0.4,0.2-0.9,0.3-1.4,0.3
		C280,69.4,279.5,69.3,279,69.2z"/>
	<path d="M292.5,68.7v0.6h-4.9v-7h4.8V63h-4v2.5h3.6v0.6h-3.6v2.6H292.5z"/>
</g>
<g>
</g>
<g>
</g>
<g>
</g>
<g>
</g>
<g>
</g>
<g>
</g>
<g>
</g>
<g>
</g>
<g>
</g>
<g>
</g>
<g>
</g>
<g>
</g>
<g>
</g>
<g>
</g>
<g>
</g>
</svg>
